# WaveFront *.obj file (generated by Autodesk ATF)

mtllib simple_arrow.mtl

g Body2

v -0.700000 -0.250000 10.000000
v -0.777646 -0.239778 10.000000
v -0.850000 -0.209808 10.000000
v -0.912132 -0.162132 10.000000
v -0.959808 -0.100000 10.000000
v -0.989778 -0.027646 10.000000
v -1.000000 0.050000 10.000000
v -1.000000 0.050000 0.000000
v -0.989778 -0.027646 -0.000000
v -0.959808 -0.100000 -0.000000
v -0.912132 -0.162132 -0.000000
v -0.850000 -0.209808 -0.000000
v -0.777646 -0.239778 -0.000000
v -0.700000 -0.250000 0.000000
v -0.777646 -0.239778 8.333333
v -0.777646 -0.239778 6.666667
v -0.777646 -0.239778 5.000000
v -0.777646 -0.239778 3.333333
v -0.777646 -0.239778 1.666667
v -0.850000 -0.209808 8.333333
v -0.850000 -0.209808 6.666667
v -0.850000 -0.209808 5.000000
v -0.850000 -0.209808 3.333333
v -0.850000 -0.209808 1.666667
v -0.912132 -0.162132 8.333333
v -0.912132 -0.162132 6.666667
v -0.912132 -0.162132 5.000000
v -0.912132 -0.162132 3.333333
v -0.912132 -0.162132 1.666667
v -0.959808 -0.100000 8.333333
v -0.959808 -0.100000 6.666667
v -0.959808 -0.100000 5.000000
v -0.959808 -0.100000 3.333333
v -0.959808 -0.100000 1.666667
v -0.989778 -0.027646 8.333333
v -0.989778 -0.027646 6.666667
v -0.989778 -0.027646 5.000000
v -0.989778 -0.027646 3.333333
v -0.989778 -0.027646 1.666667
v -1.000000 0.250000 10.000000
v -1.000000 0.250000 0.000000
v 0.700000 -0.250000 10.000000
v 0.777646 -0.239778 10.000000
v 0.850000 -0.209808 10.000000
v 0.912132 -0.162132 10.000000
v 0.959808 -0.100000 10.000000
v 0.989778 -0.027646 10.000000
v 1.000000 0.050000 10.000000
v 1.000000 0.250000 10.000000
v 0.700000 -0.250000 0.000000
v 0.777646 -0.239778 -0.000000
v 0.850000 -0.209808 -0.000000
v 0.912132 -0.162132 -0.000000
v 0.959808 -0.100000 -0.000000
v 0.989778 -0.027646 -0.000000
v 1.000000 0.050000 0.000000
v 0.989778 -0.027646 8.333333
v 0.989778 -0.027646 6.666667
v 0.989778 -0.027646 5.000000
v 0.989778 -0.027646 3.333333
v 0.989778 -0.027646 1.666667
v 0.959808 -0.100000 8.333333
v 0.959808 -0.100000 6.666667
v 0.959808 -0.100000 5.000000
v 0.959808 -0.100000 3.333333
v 0.959808 -0.100000 1.666667
v 0.912132 -0.162132 8.333333
v 0.912132 -0.162132 6.666667
v 0.912132 -0.162132 5.000000
v 0.912132 -0.162132 3.333333
v 0.912132 -0.162132 1.666667
v 0.850000 -0.209808 8.333333
v 0.850000 -0.209808 6.666667
v 0.850000 -0.209808 5.000000
v 0.850000 -0.209808 3.333333
v 0.850000 -0.209808 1.666667
v 0.777646 -0.239778 8.333333
v 0.777646 -0.239778 6.666667
v 0.777646 -0.239778 5.000000
v 0.777646 -0.239778 3.333333
v 0.777646 -0.239778 1.666667
v 1.000000 0.250000 0.000000
v 2.000000 -0.400000 0.000000
v 2.000000 0.400000 0.000000
v -2.000000 0.400000 -0.000000
v -2.000000 -0.400000 -0.000000
v 0.000000 -0.400000 -2.000000
v 0.000000 0.400000 -2.000000
vt -10.000000 0.157080 0.000000
vt -8.333333 0.157080 0.000000
vt -10.000000 0.235619 0.000000
vt -6.666667 0.157080 0.000000
vt -5.000000 0.157080 0.000000
vt -5.000000 0.078540 0.000000
vt -3.333333 0.078540 0.000000
vt -3.333333 0.000000 0.000000
vt -1.666667 0.000000 0.000000
vt -1.666667 -0.078540 0.000000
vt 0.000000 -0.078540 0.000000
vt 0.000000 -0.157080 0.000000
vt -1.666667 -0.157080 0.000000
vt -0.000000 -0.235619 0.000000
vt -3.333333 -0.157080 0.000000
vt -5.000000 -0.157080 0.000000
vt -5.000000 -0.078540 0.000000
vt -6.666667 -0.078540 0.000000
vt -6.666667 0.000000 0.000000
vt -8.333333 0.000000 0.000000
vt -8.333333 0.078540 0.000000
vt -10.000000 0.078540 0.000000
vt -10.000000 0.000000 0.000000
vt -8.333333 -0.078540 0.000000
vt -6.666667 -0.157080 0.000000
vt -10.000000 -0.235619 0.000000
vt -10.000000 -0.078540 0.000000
vt -8.333333 -0.157080 0.000000
vt -10.000000 -0.157080 0.000000
vt 0.000000 0.000000 0.000000
vt -1.666667 0.078540 0.000000
vt -3.333333 0.157080 0.000000
vt -0.000000 0.235619 0.000000
vt 0.000000 0.078540 0.000000
vt -1.666667 0.157080 0.000000
vt 0.000000 0.157080 0.000000
vt -6.666667 0.078540 0.000000
vt -5.000000 0.000000 0.000000
vt -3.333333 -0.078540 0.000000
vt 0.200000 10.000000 0.000000
vt -0.000000 10.000000 0.000000
vt 0.200000 0.000000 0.000000
vt -0.000000 0.000000 0.000000
vt -0.989778 -0.027646 0.000000
vt 0.989778 -0.027646 0.000000
vt -1.000000 0.050000 0.000000
vt 1.000000 0.050000 0.000000
vt -1.000000 0.250000 0.000000
vt 1.000000 0.250000 0.000000
vt 0.959808 -0.100000 0.000000
vt -0.959808 -0.100000 0.000000
vt 0.912132 -0.162132 0.000000
vt -0.912132 -0.162132 0.000000
vt 0.700000 -0.250000 0.000000
vt -0.700000 -0.250000 0.000000
vt -0.850000 -0.209808 0.000000
vt -0.777646 -0.239778 0.000000
vt 0.777646 -0.239778 0.000000
vt 0.850000 -0.209808 0.000000
vt -10.000000 0.157080 0.000000
vt -8.333333 0.157080 0.000000
vt -10.000000 0.235619 0.000000
vt -6.666667 0.157080 0.000000
vt -5.000000 0.157080 0.000000
vt -5.000000 0.078540 0.000000
vt -3.333333 0.078540 0.000000
vt -3.333333 -0.000000 0.000000
vt -1.666667 -0.000000 0.000000
vt -1.666667 -0.078540 0.000000
vt 0.000000 -0.078540 0.000000
vt 0.000000 -0.157080 0.000000
vt -1.666667 -0.157080 0.000000
vt -0.000000 -0.235619 0.000000
vt -3.333333 -0.157080 0.000000
vt -5.000000 -0.157080 0.000000
vt -5.000000 -0.078540 0.000000
vt -6.666667 -0.078540 0.000000
vt -6.666667 -0.000000 0.000000
vt -8.333333 -0.000000 0.000000
vt -8.333333 0.078540 0.000000
vt -10.000000 0.078540 0.000000
vt -10.000000 -0.000000 0.000000
vt -8.333333 -0.078540 0.000000
vt -6.666667 -0.157080 0.000000
vt -10.000000 -0.235619 0.000000
vt -10.000000 -0.078540 0.000000
vt -8.333333 -0.157080 0.000000
vt -10.000000 -0.157080 0.000000
vt 0.000000 -0.000000 0.000000
vt -1.666667 0.078540 0.000000
vt -3.333333 0.157080 0.000000
vt -0.000000 0.235619 0.000000
vt 0.000000 0.078540 0.000000
vt -1.666667 0.157080 0.000000
vt 0.000000 0.157080 0.000000
vt -6.666667 0.078540 0.000000
vt -5.000000 -0.000000 0.000000
vt -3.333333 -0.078540 0.000000
vt 0.300000 0.000000 0.000000
vt 0.500000 0.000000 0.000000
vt 0.300000 10.000000 0.000000
vt 0.500000 10.000000 0.000000
vt 4.000000 0.400000 0.000000
vt 3.000000 0.050000 0.000000
vt 4.000000 -0.400000 0.000000
vt 2.989778 -0.027646 0.000000
vt 2.959808 -0.100000 0.000000
vt 3.000000 0.250000 0.000000
vt 0.000000 0.400000 0.000000
vt 1.000000 0.250000 0.000000
vt 1.000000 0.050000 0.000000
vt 0.000000 -0.400000 0.000000
vt 1.010222 -0.027646 0.000000
vt 1.040192 -0.100000 0.000000
vt 1.087868 -0.162132 0.000000
vt 1.150000 -0.209808 0.000000
vt 1.222354 -0.239778 0.000000
vt 1.300000 -0.250000 0.000000
vt 2.700000 -0.250000 0.000000
vt 2.777646 -0.239778 0.000000
vt 2.850000 -0.209808 0.000000
vt 2.912132 -0.162132 0.000000
vt 1.000000 0.000000 0.000000
vt -1.000000 2.000000 0.000000
vt -1.000000 -2.000000 0.000000
vt 2.828427 0.400000 0.000000
vt 0.000000 0.400000 0.000000
vt 2.828427 -0.400000 0.000000
vt 0.000000 -0.400000 0.000000
vt 2.828427 0.400000 0.000000
vt 0.000000 0.400000 0.000000
vt 2.828427 -0.400000 0.000000
vt -0.000000 -0.400000 0.000000
vt 1.000000 2.000000 0.000000
vt -1.000000 0.000000 0.000000
vt 1.000000 -2.000000 0.000000
vt -0.000000 0.000000 0.000000
vt 2.000000 0.000000 0.000000
vt -0.000000 10.000000 0.000000
vt 2.000000 10.000000 0.000000
vt 0.300000 0.000000 0.000000
vt 1.700000 0.000000 0.000000
vt 0.300000 10.000000 0.000000
vt 1.700000 10.000000 0.000000
vn -0.258819 -0.965926 0.000000
vn -0.258819 -0.965926 0.000000
vn -0.000000 -1.000000 -0.000000
vn -0.258819 -0.965926 0.000000
vn -0.258819 -0.965926 0.000000
vn -0.500000 -0.866025 0.000000
vn -0.500000 -0.866025 0.000000
vn -0.707107 -0.707107 0.000000
vn -0.707107 -0.707107 0.000000
vn -0.866025 -0.500000 0.000000
vn -0.866025 -0.500000 0.000000
vn -0.965926 -0.258819 0.000000
vn -0.965926 -0.258819 0.000000
vn -1.000000 -0.000000 0.000000
vn -0.965926 -0.258819 0.000000
vn -0.965926 -0.258819 0.000000
vn -0.866025 -0.500000 0.000000
vn -0.866025 -0.500000 0.000000
vn -0.707107 -0.707107 0.000000
vn -0.707107 -0.707107 0.000000
vn -0.500000 -0.866025 0.000000
vn -0.500000 -0.866025 0.000000
vn -0.707107 -0.707107 0.000000
vn -0.866025 -0.500000 0.000000
vn -0.965926 -0.258819 0.000000
vn -1.000000 -0.000000 0.000000
vn -0.866025 -0.500000 0.000000
vn -0.965926 -0.258819 0.000000
vn -0.965926 -0.258819 0.000000
vn -0.707107 -0.707107 0.000000
vn -0.500000 -0.866025 0.000000
vn -0.258819 -0.965926 0.000000
vn -0.000000 -1.000000 -0.000000
vn -0.500000 -0.866025 0.000000
vn -0.258819 -0.965926 0.000000
vn -0.258819 -0.965926 0.000000
vn -0.500000 -0.866025 0.000000
vn -0.707107 -0.707107 0.000000
vn -0.866025 -0.500000 0.000000
vn -1.000000 0.000000 0.000000
vn -1.000000 0.000000 0.000000
vn 0.000000 0.000000 1.000000
vn 0.000000 0.000000 1.000000
vn 0.000000 0.000000 1.000000
vn 0.000000 0.000000 1.000000
vn 0.000000 0.000000 1.000000
vn 0.000000 0.000000 1.000000
vn 0.000000 0.000000 1.000000
vn 0.000000 0.000000 1.000000
vn 0.000000 0.000000 1.000000
vn 0.000000 0.000000 1.000000
vn 0.000000 0.000000 1.000000
vn 0.000000 0.000000 1.000000
vn 0.000000 0.000000 1.000000
vn 0.000000 0.000000 1.000000
vn 0.000000 0.000000 1.000000
vn 0.000000 0.000000 1.000000
vn 0.965926 -0.258819 -0.000000
vn 0.965926 -0.258819 -0.000000
vn 1.000000 -0.000000 -0.000000
vn 0.965926 -0.258819 -0.000000
vn 0.965926 -0.258819 -0.000000
vn 0.866025 -0.500000 -0.000000
vn 0.866025 -0.500000 -0.000000
vn 0.707107 -0.707107 -0.000000
vn 0.707107 -0.707107 -0.000000
vn 0.500000 -0.866025 -0.000000
vn 0.500000 -0.866025 -0.000000
vn 0.258819 -0.965926 -0.000000
vn 0.258819 -0.965926 -0.000000
vn -0.000000 -1.000000 -0.000000
vn 0.258819 -0.965926 -0.000000
vn 0.258819 -0.965926 -0.000000
vn 0.500000 -0.866025 -0.000000
vn 0.500000 -0.866025 -0.000000
vn 0.707107 -0.707107 -0.000000
vn 0.707107 -0.707107 -0.000000
vn 0.866025 -0.500000 -0.000000
vn 0.866025 -0.500000 -0.000000
vn 0.707107 -0.707107 -0.000000
vn 0.500000 -0.866025 -0.000000
vn 0.258819 -0.965926 -0.000000
vn -0.000000 -1.000000 -0.000000
vn 0.500000 -0.866025 -0.000000
vn 0.258819 -0.965926 -0.000000
vn 0.258819 -0.965926 -0.000000
vn 0.707107 -0.707107 -0.000000
vn 0.866025 -0.500000 -0.000000
vn 0.965926 -0.258819 -0.000000
vn 1.000000 -0.000000 -0.000000
vn 0.866025 -0.500000 -0.000000
vn 0.965926 -0.258819 -0.000000
vn 0.965926 -0.258819 -0.000000
vn 0.866025 -0.500000 -0.000000
vn 0.707107 -0.707107 -0.000000
vn 0.500000 -0.866025 -0.000000
vn 1.000000 0.000000 -0.000000
vn 1.000000 0.000000 -0.000000
vn -0.000000 0.000000 1.000000
vn -0.000000 0.000000 1.000000
vn -0.000000 0.000000 1.000000
vn -0.000000 0.000000 1.000000
vn -0.000000 0.000000 1.000000
vn -0.000000 0.000000 1.000000
vn -0.000000 0.000000 1.000000
vn -0.000000 0.000000 1.000000
vn -0.000000 0.000000 1.000000
vn -0.000000 0.000000 1.000000
vn -0.000000 0.000000 1.000000
vn -0.000000 0.000000 1.000000
vn -0.000000 0.000000 1.000000
vn -0.000000 0.000000 1.000000
vn -0.000000 0.000000 1.000000
vn -0.000000 0.000000 1.000000
vn -0.000000 0.000000 1.000000
vn -0.000000 0.000000 1.000000
vn -0.000000 0.000000 1.000000
vn -0.000000 0.000000 1.000000
vn 0.000000 -1.000000 0.000000
vn 0.000000 -1.000000 0.000000
vn 0.000000 -1.000000 0.000000
vn -0.707107 0.000000 -0.707107
vn -0.707107 0.000000 -0.707107
vn -0.707107 0.000000 -0.707107
vn -0.707107 0.000000 -0.707107
vn 0.707107 0.000000 -0.707107
vn 0.707107 0.000000 -0.707107
vn 0.707107 0.000000 -0.707107
vn 0.707107 0.000000 -0.707107
vn 0.000000 1.000000 0.000000
vn 0.000000 1.000000 0.000000
vn 0.000000 1.000000 0.000000
vn 0.000000 1.000000 0.000000
vn 0.000000 1.000000 0.000000
vn 0.000000 1.000000 0.000000
vn 0.000000 1.000000 0.000000
usemtl Steel_-_Satin
f 2/1/1 15/2/2 1/3/3
f 1/3/3 15/2/2 16/4/4
f 1/3/3 16/4/4 17/5/5
f 17/5/5 16/4/4 22/6/6
f 17/5/5 22/6/6 23/7/7
f 23/7/7 22/6/6 28/8/8
f 23/7/7 28/8/8 29/9/9
f 29/9/9 28/8/8 34/10/10
f 29/9/9 34/10/10 10/11/11
f 10/11/11 34/10/10 9/12/12
f 9/12/12 34/10/10 39/13/13
f 9/12/12 39/13/13 8/14/14
f 8/14/14 39/13/13 38/15/15
f 8/14/14 38/15/15 37/16/16
f 37/16/16 38/15/15 32/17/17
f 37/16/16 32/17/17 31/18/18
f 31/18/18 32/17/17 26/19/19
f 31/18/18 26/19/19 25/20/20
f 25/20/20 26/19/19 20/21/21
f 25/20/20 20/21/21 3/22/22
f 3/22/22 20/21/21 2/1/1
f 2/1/1 20/21/21 15/2/2
f 3/22/22 4/23/23 25/20/20
f 25/20/20 4/23/23 30/24/24
f 25/20/20 30/24/24 31/18/18
f 31/18/18 30/24/24 36/25/25
f 31/18/18 36/25/25 37/16/16
f 37/16/16 36/25/25 7/26/26
f 37/16/16 7/26/26 8/14/14
f 4/23/23 5/27/27 30/24/24
f 30/24/24 5/27/27 35/28/28
f 30/24/24 35/28/28 36/25/25
f 36/25/25 35/28/28 7/26/26
f 5/27/27 6/29/29 35/28/28
f 35/28/28 6/29/29 7/26/26
f 10/11/11 11/30/30 29/9/9
f 29/9/9 11/30/30 24/31/31
f 29/9/9 24/31/31 23/7/7
f 23/7/7 24/31/31 18/32/32
f 23/7/7 18/32/32 17/5/5
f 17/5/5 18/32/32 14/33/33
f 17/5/5 14/33/33 1/3/3
f 11/30/30 12/34/34 24/31/31
f 24/31/31 12/34/34 19/35/35
f 24/31/31 19/35/35 18/32/32
f 18/32/32 19/35/35 14/33/33
f 12/34/34 13/36/36 19/35/35
f 19/35/35 13/36/36 14/33/33
f 16/4/4 15/2/2 21/37/37
f 21/37/37 15/2/2 20/21/21
f 21/37/37 20/21/21 26/19/19
f 16/4/4 21/37/37 22/6/6
f 22/6/6 21/37/37 27/38/38
f 22/6/6 27/38/38 28/8/8
f 28/8/8 27/38/38 33/39/39
f 28/8/8 33/39/39 34/10/10
f 34/10/10 33/39/39 39/13/13
f 27/38/38 21/37/37 26/19/19
f 33/39/39 27/38/38 32/17/17
f 32/17/17 27/38/38 26/19/19
f 39/13/13 33/39/39 38/15/15
f 38/15/15 33/39/39 32/17/17
f 7/40/26 40/41/40 8/42/14
f 8/42/14 40/41/40 41/43/41
f 6/44/42 47/45/43 7/46/44
f 7/46/44 47/45/43 48/47/45
f 7/46/44 48/47/45 40/48/46
f 40/48/46 48/47/45 49/49/47
f 47/45/43 6/44/42 46/50/48
f 46/50/48 6/44/42 5/51/49
f 46/50/48 5/51/49 45/52/50
f 45/52/50 5/51/49 4/53/51
f 45/52/50 4/53/51 42/54/52
f 42/54/52 4/53/51 1/55/53
f 1/55/53 4/53/51 3/56/54
f 1/55/53 3/56/54 2/57/55
f 43/58/56 44/59/57 42/54/52
f 42/54/52 44/59/57 45/52/50
f 47/60/58 57/61/59 48/62/60
f 48/62/60 57/61/59 58/63/61
f 48/62/60 58/63/61 59/64/62
f 59/64/62 58/63/61 64/65/63
f 59/64/62 64/65/63 65/66/64
f 65/66/64 64/65/63 70/67/65
f 65/66/64 70/67/65 71/68/66
f 71/68/66 70/67/65 76/69/67
f 71/68/66 76/69/67 52/70/68
f 52/70/68 76/69/67 51/71/69
f 51/71/69 76/69/67 81/72/70
f 51/71/69 81/72/70 50/73/71
f 50/73/71 81/72/70 80/74/72
f 50/73/71 80/74/72 79/75/73
f 79/75/73 80/74/72 74/76/74
f 79/75/73 74/76/74 73/77/75
f 73/77/75 74/76/74 68/78/76
f 73/77/75 68/78/76 67/79/77
f 67/79/77 68/78/76 62/80/78
f 67/79/77 62/80/78 46/81/79
f 46/81/79 62/80/78 47/60/58
f 47/60/58 62/80/78 57/61/59
f 46/81/79 45/82/80 67/79/77
f 67/79/77 45/82/80 72/83/81
f 67/79/77 72/83/81 73/77/75
f 73/77/75 72/83/81 78/84/82
f 73/77/75 78/84/82 79/75/73
f 79/75/73 78/84/82 42/85/83
f 79/75/73 42/85/83 50/73/71
f 45/82/80 44/86/84 72/83/81
f 72/83/81 44/86/84 77/87/85
f 72/83/81 77/87/85 78/84/82
f 78/84/82 77/87/85 42/85/83
f 44/86/84 43/88/86 77/87/85
f 77/87/85 43/88/86 42/85/83
f 52/70/68 53/89/87 71/68/66
f 71/68/66 53/89/87 66/90/88
f 71/68/66 66/90/88 65/66/64
f 65/66/64 66/90/88 60/91/89
f 65/66/64 60/91/89 59/64/62
f 59/64/62 60/91/89 56/92/90
f 59/64/62 56/92/90 48/62/60
f 53/89/87 54/93/91 66/90/88
f 66/90/88 54/93/91 61/94/92
f 66/90/88 61/94/92 60/91/89
f 60/91/89 61/94/92 56/92/90
f 54/93/91 55/95/93 61/94/92
f 61/94/92 55/95/93 56/92/90
f 58/63/61 57/61/59 63/96/94
f 63/96/94 57/61/59 62/80/78
f 63/96/94 62/80/78 68/78/76
f 58/63/61 63/96/94 64/65/63
f 64/65/63 63/96/94 69/97/95
f 64/65/63 69/97/95 70/67/65
f 70/67/65 69/97/95 75/98/96
f 70/67/65 75/98/96 76/69/67
f 76/69/67 75/98/96 81/72/70
f 69/97/95 63/96/94 68/78/76
f 75/98/96 69/97/95 74/76/74
f 74/76/74 69/97/95 68/78/76
f 81/72/70 75/98/96 80/74/72
f 80/74/72 75/98/96 74/76/74
f 56/99/90 82/100/97 48/101/60
f 48/101/60 82/100/97 49/102/98
f 84/103/99 56/104/100 83/105/101
f 83/105/101 56/104/100 55/106/102
f 83/105/101 55/106/102 54/107/103
f 56/104/100 84/103/99 82/108/104
f 82/108/104 84/103/99 85/109/105
f 82/108/104 85/109/105 41/110/106
f 41/110/106 85/109/105 8/111/107
f 8/111/107 85/109/105 86/112/108
f 8/111/107 86/112/108 9/113/109
f 9/113/109 86/112/108 10/114/110
f 10/114/110 86/112/108 11/115/111
f 11/115/111 86/112/108 12/116/112
f 12/116/112 86/112/108 13/117/113
f 13/117/113 86/112/108 14/118/114
f 14/118/114 86/112/108 83/105/101
f 14/118/114 83/105/101 50/119/115
f 50/119/115 83/105/101 51/120/116
f 51/120/116 83/105/101 52/121/117
f 52/121/117 83/105/101 53/122/118
f 53/122/118 83/105/101 54/107/103
f 87/123/119 83/124/120 86/125/121
f 85/126/122 88/127/123 86/128/124
f 86/128/124 88/127/123 87/129/125
f 88/130/126 84/131/127 87/132/128
f 87/132/128 84/131/127 83/133/129
f 84/134/130 88/135/131 85/136/132
f 82/137/133 41/138/134 49/139/135
f 49/139/135 41/138/134 40/140/136
f 14/141/33 50/142/71 1/143/3
f 1/143/3 50/142/71 42/144/83
# 88 vertices
# 144 texture params
# 136 normals
# 172 facets

# 1 groups
